<?xml version="1.0" encoding="UTF-8" standalone="no"?>
<svg
   id="a"
   viewBox="0 0 150 150"
   version="1.1"
   sodipodi:docname="logo.svg"
   inkscape:version="1.3.2 (091e20e, 2023-11-25, custom)"
   xml:space="preserve"
   xmlns:inkscape="http://www.inkscape.org/namespaces/inkscape"
   xmlns:sodipodi="http://sodipodi.sourceforge.net/DTD/sodipodi-0.dtd"
   xmlns="http://www.w3.org/2000/svg"
   xmlns:svg="http://www.w3.org/2000/svg"><sodipodi:namedview
     id="namedview2"
     pagecolor="#505050"
     bordercolor="#ffffff"
     borderopacity="1"
     inkscape:showpageshadow="0"
     inkscape:pageopacity="0"
     inkscape:pagecheckerboard="1"
     inkscape:deskcolor="#d1d1d1"
     inkscape:zoom="2"
     inkscape:cx="-105.25"
     inkscape:cy="96.25"
     inkscape:window-width="3440"
     inkscape:window-height="1417"
     inkscape:window-x="-8"
     inkscape:window-y="-8"
     inkscape:window-maximized="1"
     inkscape:current-layer="a" /><defs
     id="defs1"><style
       id="style1">.b{fill:#fc6719;}.c{fill:none;}</style></defs><path
     class="c"
     d="M0,0H150V150H0V0Z"
     id="path1" /><path
     class="b"
     d="M45.59,55.06l-16.3-.17c-23.55-2.7-24.13-35.27-1.97-39.86,1.4-.26,2.86-.32,4.29-.32l111.03-.02c-16.83,27.43-50.3,82-50.3,82l16.22,.15c26.2,2.82,23.56,40.42-2.24,40.18-24.97,.04-49.92,0-74.89,.04-7.93,.02-13.98-3.35-17.8-10.13-3.87-6.88-3.45-13.92,.66-20.65l31.29-51.22Z"
     id="path2" /><g
     style="fill:none"
     id="g3"
     transform="matrix(6.6666666,0,0,6.6666666,-5.0001231,-5.0001142)"><path
       d="M 10.25,4.00003 C 10.25,3.69074 10.0602,3.41317 9.77191,3.30105 9.48366,3.18892 9.15614,3.26524 8.94715,3.49324 l -5.5,6 C 3.24617,9.71248 3.19374,10.0298 3.3135,10.302 3.43327,10.5743 3.70259,10.75 4.00002,10.75 H 20 c 0.4142,0 0.75,-0.3358 0.75,-0.75 0,-0.41418 -0.3358,-0.74997 -0.75,-0.74997 h -9.75 z"
       fill="#1c274c"
       id="path1-1" /><path
       d="M 13.75,20 V 14.75 H 4.00002 c -0.41422,0 -0.75,-0.3358 -0.75,-0.75 0,-0.4142 0.33578,-0.75 0.75,-0.75 H 20 c 0.2974,0 0.5668,0.1758 0.6865,0.448 0.1198,0.2723 0.0674,0.5896 -0.1336,0.8088 l -5.5,6 c -0.209,0.228 -0.5365,0.3043 -0.8248,0.1922 C 13.9399,20.5869 13.75,20.3093 13.75,20 Z"
       fill="#1c274c"
       id="path2-17" /></g></svg>
